<?xml version="1.0" encoding="UTF-8" standalone="no"?>
<svg width="24px" height="22px" viewBox="0 0 24 22" version="1.1" xmlns="http://www.w3.org/2000/svg" xmlns:xlink="http://www.w3.org/1999/xlink" xmlns:sketch="http://www.bohemiancoding.com/sketch/ns">
    <!-- Generator: Sketch 3.4.3 (16618) - http://www.bohemiancoding.com/sketch -->
    <title>icon/HeartPopupActivate</title>
    <desc>Created with Sketch.</desc>
    <defs></defs>
    <g id="design_fix" stroke="none" stroke-width="1" fill="none" fill-rule="evenodd" sketch:type="MSPage">
        <g id="popup_active" sketch:type="MSArtboardGroup" transform="translate(-18.000000, -631.000000)">
            <g id="popup" sketch:type="MSLayerGroup">
                <g id="Group" transform="translate(0.000000, 146.000000)" sketch:type="MSShapeGroup">
                    <g id="icon/HeartPopupActivate" transform="translate(16.000000, 478.000000)">
                        <rect id="base" opacity="0" fill="#FFFFFF" x="1" y="4" width="26" height="26"></rect>
                        <path d="M23.6659451,24.1421356 L10.5140404,24.1421356 C7.00070705,24.1421356 4.14213562,21.2835642 4.14213562,17.7702309 C4.14213562,14.2568975 7.00070705,11.3983261 10.5140404,11.3983261 C10.8321356,11.3983261 11.153088,11.4240404 11.4740404,11.4740404 C11.4240404,11.153088 11.3983261,10.8321356 11.3983261,10.5140404 C11.3983261,7.00023086 14.2568975,4.14213562 17.7702309,4.14213562 C21.2835642,4.14213562 24.1421356,7.00023086 24.1421356,10.5140404 L24.1421356,23.6659451 C24.1421356,23.9292785 23.9292785,24.1421356 23.6659451,24.1421356 L23.6659451,24.1421356 Z" id="Heart" stroke="#F54242" stroke-width="1.5" fill="#F54242" transform="translate(14.142136, 14.142136) rotate(-315.000000) translate(-14.142136, -14.142136) "></path>
                    </g>
                </g>
            </g>
        </g>
    </g>
</svg>