<?xml version="1.0" encoding="UTF-8" standalone="no"?>
<svg width="24px" height="22px" viewBox="0 0 24 22" version="1.1" xmlns="http://www.w3.org/2000/svg" xmlns:xlink="http://www.w3.org/1999/xlink" xmlns:sketch="http://www.bohemiancoding.com/sketch/ns">
    <!-- Generator: Sketch 3.4.3 (16618) - http://www.bohemiancoding.com/sketch -->
    <title>Heart</title>
    <desc>Created with Sketch.</desc>
    <defs></defs>
    <g id="design_fix" stroke="none" stroke-width="1" fill="none" fill-rule="evenodd" sketch:type="MSPage">
        <g id="popup" sketch:type="MSArtboardGroup" transform="translate(-18.000000, -631.000000)" stroke="#FFFFFF" stroke-width="1.5">
            <g sketch:type="MSLayerGroup" id="Group">
                <g transform="translate(0.000000, 146.000000)" sketch:type="MSShapeGroup">
                    <path d="M39.6659451,502.142136 L26.5140404,502.142136 C23.0007071,502.142136 20.1421356,499.283564 20.1421356,495.770231 C20.1421356,492.256898 23.0007071,489.398326 26.5140404,489.398326 C26.8321356,489.398326 27.153088,489.42404 27.4740404,489.47404 C27.4240404,489.153088 27.3983261,488.832136 27.3983261,488.51404 C27.3983261,485.000231 30.2568975,482.142136 33.7702309,482.142136 C37.2835642,482.142136 40.1421356,485.000231 40.1421356,488.51404 L40.1421356,501.665945 C40.1421356,501.929278 39.9292785,502.142136 39.6659451,502.142136 L39.6659451,502.142136 Z" id="Heart" transform="translate(30.142136, 492.142136) rotate(-315.000000) translate(-30.142136, -492.142136) "></path>
                </g>
            </g>
        </g>
    </g>
</svg>